<svg xmlns="http://www.w3.org/2000/svg" xmlns:xlink="http://www.w3.org/1999/xlink" contentStyleType="text/css" data-diagram-type="CLASS" height="675px" preserveAspectRatio="none" style="width:787px;height:675px;background:#1B1B1B;" version="1.1" viewBox="0 0 787 675" width="787px" zoomAndPan="magnify"><title>Diagrama de Clases - RF03 Entrenamientos Personalizables</title><defs/><g><rect fill="#1B1B1B" height="675" style="stroke:none;stroke-width:1;" width="787" x="0" y="0"/><g class="title" data-source-line="1"><text fill="#FFFFFF" font-family="sans-serif" font-size="14" font-weight="bold" lengthAdjust="spacing" textLength="470.75" x="151.1873" y="22.9951">Diagrama de Clases - RF03 Entrenamientos Personalizables</text></g><!--class Usuario--><g class="entity" data-entity="Usuario" data-source-line="3" data-uid="ent0002" id="entity_Usuario"><rect fill="#313139" height="129.4844" rx="2.5" ry="2.5" style="stroke:#E7E7E7;stroke-width:0.5;" width="277.043" x="358.26" y="44.2969"/><ellipse cx="465.9294" cy="60.2969" fill="#2E5233" rx="11" ry="11" style="stroke:#E7E7E7;stroke-width:1;"/><path d="M468.8982,65.9375 Q468.3201,66.2344 467.6794,66.375 Q467.0388,66.5313 466.3357,66.5313 Q463.8357,66.5313 462.5076,64.8906 Q461.1951,63.2344 461.1951,60.1094 Q461.1951,56.9844 462.5076,55.3281 Q463.8357,53.6719 466.3357,53.6719 Q467.0388,53.6719 467.6794,53.8281 Q468.3357,53.9844 468.8982,54.2813 L468.8982,57 Q468.2732,56.4219 467.6794,56.1563 Q467.0857,55.875 466.4607,55.875 Q465.1169,55.875 464.4294,56.9531 Q463.7419,58.0156 463.7419,60.1094 Q463.7419,62.2031 464.4294,63.2813 Q465.1169,64.3438 466.4607,64.3438 Q467.0857,64.3438 467.6794,64.0781 Q468.2732,63.7969 468.8982,63.2188 L468.8982,65.9375 Z " fill="#FFFFFF"/><text fill="#FFFFFF" font-family="sans-serif" font-size="14" lengthAdjust="spacing" textLength="53.2041" x="486.4294" y="65.1436">Usuario</text><line style="stroke:#E7E7E7;stroke-width:0.5;" x1="359.26" x2="634.303" y1="76.2969" y2="76.2969"/><rect fill="none" height="6" style="stroke:#C82930;stroke-width:1;" width="6" x="366.26" y="86.9453"/><text fill="#FFFFFF" font-family="sans-serif" font-size="14" lengthAdjust="spacing" textLength="40.1953" x="378.26" y="93.292">id: int</text><rect fill="none" height="6" style="stroke:#C82930;stroke-width:1;" width="6" x="366.26" y="103.2422"/><text fill="#FFFFFF" font-family="sans-serif" font-size="14" lengthAdjust="spacing" textLength="103.6875" x="378.26" y="109.5889">nombre: string</text><line style="stroke:#E7E7E7;stroke-width:0.5;" x1="359.26" x2="634.303" y1="116.8906" y2="116.8906"/><ellipse cx="369.26" cy="130.5391" fill="#84BE84" rx="3" ry="3" style="stroke:#038048;stroke-width:1;"/><text fill="#FFFFFF" font-family="sans-serif" font-size="14" lengthAdjust="spacing" textLength="251.043" x="378.26" y="133.8857">crearRutina(nombre: string): Rutina</text><ellipse cx="369.26" cy="146.8359" fill="#84BE84" rx="3" ry="3" style="stroke:#038048;stroke-width:1;"/><text fill="#FFFFFF" font-family="sans-serif" font-size="14" lengthAdjust="spacing" textLength="232.4219" x="378.26" y="150.1826">editarRutina(rutina: Rutina): void</text><ellipse cx="369.26" cy="163.1328" fill="#84BE84" rx="3" ry="3" style="stroke:#038048;stroke-width:1;"/><text fill="#FFFFFF" font-family="sans-serif" font-size="14" lengthAdjust="spacing" textLength="188.8359" x="378.26" y="166.4795">verRutinas(): List&lt;Rutina&gt;</text></g><!--class Rutina--><g class="entity" data-entity="Rutina" data-source-line="11" data-uid="ent0003" id="entity_Rutina"><rect fill="#313139" height="194.6719" rx="2.5" ry="2.5" style="stroke:#E7E7E7;stroke-width:0.5;" width="330.1992" x="331.68" y="250.7869"/><ellipse cx="469.8138" cy="266.7869" fill="#2E5233" rx="11" ry="11" style="stroke:#E7E7E7;stroke-width:1;"/><path d="M472.7825,272.4275 Q472.2044,272.7244 471.5638,272.865 Q470.9232,273.0213 470.22,273.0213 Q467.72,273.0213 466.3919,271.3806 Q465.0794,269.7244 465.0794,266.5994 Q465.0794,263.4744 466.3919,261.8181 Q467.72,260.1619 470.22,260.1619 Q470.9232,260.1619 471.5638,260.3181 Q472.22,260.4744 472.7825,260.7713 L472.7825,263.49 Q472.1575,262.9119 471.5638,262.6463 Q470.97,262.365 470.345,262.365 Q469.0013,262.365 468.3138,263.4431 Q467.6263,264.5056 467.6263,266.5994 Q467.6263,268.6931 468.3138,269.7713 Q469.0013,270.8338 470.345,270.8338 Q470.97,270.8338 471.5638,270.5681 Q472.1575,270.2869 472.7825,269.7088 L472.7825,272.4275 Z " fill="#FFFFFF"/><text fill="#FFFFFF" font-family="sans-serif" font-size="14" lengthAdjust="spacing" textLength="45.4316" x="490.3138" y="271.6336">Rutina</text><line style="stroke:#E7E7E7;stroke-width:0.5;" x1="332.68" x2="660.8792" y1="282.7869" y2="282.7869"/><rect fill="none" height="6" style="stroke:#C82930;stroke-width:1;" width="6" x="339.68" y="293.4353"/><text fill="#FFFFFF" font-family="sans-serif" font-size="14" lengthAdjust="spacing" textLength="40.1953" x="351.68" y="299.782">id: int</text><rect fill="none" height="6" style="stroke:#C82930;stroke-width:1;" width="6" x="339.68" y="309.7322"/><text fill="#FFFFFF" font-family="sans-serif" font-size="14" lengthAdjust="spacing" textLength="103.6875" x="351.68" y="316.0789">nombre: string</text><rect fill="none" height="6" style="stroke:#C82930;stroke-width:1;" width="6" x="339.68" y="326.0291"/><text fill="#FFFFFF" font-family="sans-serif" font-size="14" lengthAdjust="spacing" textLength="105.54" x="351.68" y="332.3757">objetivo: string</text><rect fill="none" height="6" style="stroke:#C82930;stroke-width:1;" width="6" x="339.68" y="342.3259"/><text fill="#FFFFFF" font-family="sans-serif" font-size="14" lengthAdjust="spacing" textLength="88.5391" x="351.68" y="348.6726">duracion: int</text><rect fill="none" height="6" style="stroke:#C82930;stroke-width:1;" width="6" x="339.68" y="358.6228"/><text fill="#FFFFFF" font-family="sans-serif" font-size="14" lengthAdjust="spacing" textLength="144.1973" x="351.68" y="364.9695">tiempoDescanso: int</text><line style="stroke:#E7E7E7;stroke-width:0.5;" x1="332.68" x2="660.8792" y1="372.2713" y2="372.2713"/><ellipse cx="342.68" cy="385.9197" fill="#84BE84" rx="3" ry="3" style="stroke:#038048;stroke-width:1;"/><text fill="#FFFFFF" font-family="sans-serif" font-size="14" lengthAdjust="spacing" textLength="290.2402" x="351.68" y="389.2664">agregarEjercicio(ejercicio: Ejercicio): void</text><ellipse cx="342.68" cy="402.2166" fill="#84BE84" rx="3" ry="3" style="stroke:#038048;stroke-width:1;"/><text fill="#FFFFFF" font-family="sans-serif" font-size="14" lengthAdjust="spacing" textLength="292.3115" x="351.68" y="405.5632">eliminarEjercicio(ejercicio: Ejercicio): void</text><ellipse cx="342.68" cy="418.5134" fill="#84BE84" rx="3" ry="3" style="stroke:#038048;stroke-width:1;"/><text fill="#FFFFFF" font-family="sans-serif" font-size="14" lengthAdjust="spacing" textLength="294.8477" x="351.68" y="421.8601">ajustarDuracion(nuevaDuracion: int): void</text><ellipse cx="342.68" cy="434.8103" fill="#84BE84" rx="3" ry="3" style="stroke:#038048;stroke-width:1;"/><text fill="#FFFFFF" font-family="sans-serif" font-size="14" lengthAdjust="spacing" textLength="304.1992" x="351.68" y="438.157">ajustarDescanso(nuevoDescanso: int): void</text></g><!--class Ejercicio--><g class="entity" data-entity="Ejercicio" data-source-line="23" data-uid="ent0004" id="entity_Ejercicio"><rect fill="#313139" height="145.7813" rx="2.5" ry="2.5" style="stroke:#E7E7E7;stroke-width:0.5;" width="575.5615" x="7" y="522.4569"/><ellipse cx="261.1089" cy="538.4569" fill="#2E5233" rx="11" ry="11" style="stroke:#E7E7E7;stroke-width:1;"/><path d="M264.0776,544.0975 Q263.4995,544.3944 262.8589,544.535 Q262.2183,544.6913 261.5151,544.6913 Q259.0151,544.6913 257.687,543.0506 Q256.3745,541.3944 256.3745,538.2694 Q256.3745,535.1444 257.687,533.4881 Q259.0151,531.8319 261.5151,531.8319 Q262.2183,531.8319 262.8589,531.9881 Q263.5151,532.1444 264.0776,532.4413 L264.0776,535.16 Q263.4526,534.5819 262.8589,534.3163 Q262.2651,534.035 261.6401,534.035 Q260.2964,534.035 259.6089,535.1131 Q258.9214,536.1756 258.9214,538.2694 Q258.9214,540.3631 259.6089,541.4413 Q260.2964,542.5038 261.6401,542.5038 Q262.2651,542.5038 262.8589,542.2381 Q263.4526,541.9569 264.0776,541.3788 L264.0776,544.0975 Z " fill="#FFFFFF"/><text fill="#FFFFFF" font-family="sans-serif" font-size="14" lengthAdjust="spacing" textLength="58.8438" x="281.6089" y="543.3036">Ejercicio</text><line style="stroke:#E7E7E7;stroke-width:0.5;" x1="8" x2="581.5615" y1="554.4569" y2="554.4569"/><rect fill="none" height="6" style="stroke:#C82930;stroke-width:1;" width="6" x="15" y="565.1053"/><text fill="#FFFFFF" font-family="sans-serif" font-size="14" lengthAdjust="spacing" textLength="40.1953" x="27" y="571.452">id: int</text><rect fill="none" height="6" style="stroke:#C82930;stroke-width:1;" width="6" x="15" y="581.4022"/><text fill="#FFFFFF" font-family="sans-serif" font-size="14" lengthAdjust="spacing" textLength="103.6875" x="27" y="587.7489">nombre: string</text><rect fill="none" height="6" style="stroke:#C82930;stroke-width:1;" width="6" x="15" y="597.6991"/><text fill="#FFFFFF" font-family="sans-serif" font-size="14" lengthAdjust="spacing" textLength="145.7627" x="27" y="604.0457">zonaMuscular: string</text><rect fill="none" height="6" style="stroke:#C82930;stroke-width:1;" width="6" x="15" y="613.9959"/><text fill="#FFFFFF" font-family="sans-serif" font-size="14" lengthAdjust="spacing" textLength="113.5996" x="27" y="620.3426">repeticiones: int</text><rect fill="none" height="6" style="stroke:#C82930;stroke-width:1;" width="6" x="15" y="630.2928"/><text fill="#FFFFFF" font-family="sans-serif" font-size="14" lengthAdjust="spacing" textLength="68.8789" x="27" y="636.6395">series: int</text><line style="stroke:#E7E7E7;stroke-width:0.5;" x1="8" x2="581.5615" y1="643.9413" y2="643.9413"/><ellipse cx="18" cy="657.5897" fill="#84BE84" rx="3" ry="3" style="stroke:#038048;stroke-width:1;"/><text fill="#FFFFFF" font-family="sans-serif" font-size="14" lengthAdjust="spacing" textLength="549.5615" x="27" y="660.9364">editar(nombre: string, zonaMuscular: string, repeticiones: int, series: int): void</text></g><!--class TipEdicion--><g class="entity" data-entity="TipEdicion" data-source-line="32" data-uid="ent0005" id="entity_TipEdicion"><rect fill="#313139" height="96.8906" rx="2.5" ry="2.5" style="stroke:#E7E7E7;stroke-width:0.5;" width="162.6846" x="617.44" y="546.8969"/><ellipse cx="658.859" cy="562.8969" fill="#2E5233" rx="11" ry="11" style="stroke:#E7E7E7;stroke-width:1;"/><path d="M661.8278,568.5375 Q661.2497,568.8344 660.609,568.975 Q659.9684,569.1313 659.2653,569.1313 Q656.7653,569.1313 655.4372,567.4906 Q654.1247,565.8344 654.1247,562.7094 Q654.1247,559.5844 655.4372,557.9281 Q656.7653,556.2719 659.2653,556.2719 Q659.9684,556.2719 660.609,556.4281 Q661.2653,556.5844 661.8278,556.8813 L661.8278,559.6 Q661.2028,559.0219 660.609,558.7563 Q660.0153,558.475 659.3903,558.475 Q658.0465,558.475 657.359,559.5531 Q656.6715,560.6156 656.6715,562.7094 Q656.6715,564.8031 657.359,565.8813 Q658.0465,566.9438 659.3903,566.9438 Q660.0153,566.9438 660.609,566.6781 Q661.2028,566.3969 661.8278,565.8188 L661.8278,568.5375 Z " fill="#FFFFFF"/><text fill="#FFFFFF" font-family="sans-serif" font-size="14" lengthAdjust="spacing" textLength="71.9756" x="678.7299" y="567.7436">TipEdicion</text><line style="stroke:#E7E7E7;stroke-width:0.5;" x1="618.44" x2="779.1246" y1="578.8969" y2="578.8969"/><rect fill="none" height="6" style="stroke:#C82930;stroke-width:1;" width="6" x="625.44" y="589.5453"/><text fill="#FFFFFF" font-family="sans-serif" font-size="14" lengthAdjust="spacing" textLength="40.1953" x="637.44" y="595.892">id: int</text><rect fill="none" height="6" style="stroke:#C82930;stroke-width:1;" width="6" x="625.44" y="605.8422"/><text fill="#FFFFFF" font-family="sans-serif" font-size="14" lengthAdjust="spacing" textLength="118.8086" x="637.44" y="612.1889">contenido: string</text><line style="stroke:#E7E7E7;stroke-width:0.5;" x1="618.44" x2="779.1246" y1="619.4906" y2="619.4906"/><ellipse cx="628.44" cy="633.1391" fill="#84BE84" rx="3" ry="3" style="stroke:#038048;stroke-width:1;"/><text fill="#FFFFFF" font-family="sans-serif" font-size="14" lengthAdjust="spacing" textLength="136.6846" x="637.44" y="636.4857">mostrarTip(): string</text></g><!--link Usuario to Rutina--><g class="link" data-entity-1="Usuario" data-entity-2="Rutina" data-source-line="38" data-uid="lnk6" id="link_Usuario_Rutina"><path codeLine="38" d="M496.78,174.1969 C496.78,197.6469 496.78,224.7269 496.78,250.3869" fill="none" id="Usuario-Rutina" style="stroke:#E7E7E7;stroke-width:1;"/><polygon fill="#FFFFFF" points="501.78,217.3533,504.7189,208.3082,498.8411,208.3082,501.78,217.3533" style="stroke:#FFFFFF;stroke-width:1;"/><text fill="#FFFFFF" font-family="sans-serif" font-size="13" lengthAdjust="spacing" textLength="28.4565" x="510.78" y="216.8538">crea</text><text fill="#FFFFFF" font-family="sans-serif" font-size="13" lengthAdjust="spacing" textLength="8.271" x="488.3813" y="193.7635">1</text><text fill="#FFFFFF" font-family="sans-serif" font-size="13" lengthAdjust="spacing" textLength="23.0356" x="472.9368" y="239.7304">0..*</text></g><!--link Rutina to Ejercicio--><g class="link" data-entity-1="Rutina" data-entity-2="Ejercicio" data-source-line="39" data-uid="lnk7" id="link_Rutina_Ejercicio"><path codeLine="39" d="M417.23,445.6869 C396.26,471.1569 373.99,498.1869 354.27,522.1269" fill="none" id="Rutina-Ejercicio" style="stroke:#E7E7E7;stroke-width:1;"/><polygon fill="#FFFFFF" points="391.6012,487.8827,399.6202,482.7694,395.0832,479.0325,391.6012,487.8827" style="stroke:#FFFFFF;stroke-width:1;"/><text fill="#FFFFFF" font-family="sans-serif" font-size="13" lengthAdjust="spacing" textLength="56.2847" x="403.78" y="488.5238">contiene</text><text fill="#FFFFFF" font-family="sans-serif" font-size="13" lengthAdjust="spacing" textLength="8.271" x="403.1043" y="465.4743">1</text><text fill="#FFFFFF" font-family="sans-serif" font-size="13" lengthAdjust="spacing" textLength="23.0356" x="335.8457" y="511.5064">0..*</text></g><!--link Rutina to TipEdicion--><g class="link" data-entity-1="Rutina" data-entity-2="TipEdicion" data-source-line="40" data-uid="lnk8" id="link_Rutina_TipEdicion"><path codeLine="40" d="M576.33,445.6869 C604.81,480.2669 635.68,517.7469 659.3,546.4169" fill="none" id="Rutina-TipEdicion" style="stroke:#E7E7E7;stroke-width:1;"/><polygon fill="#FFFFFF" points="617.9589,487.8826,614.4767,479.0325,609.9397,482.7695,617.9589,487.8826" style="stroke:#FFFFFF;stroke-width:1;"/><text fill="#FFFFFF" font-family="sans-serif" font-size="13" lengthAdjust="spacing" textLength="48.2168" x="623.78" y="488.5238">sugiere</text><text fill="#FFFFFF" font-family="sans-serif" font-size="13" lengthAdjust="spacing" textLength="23.0356" x="558.3288" y="465.4743">0..*</text><text fill="#FFFFFF" font-family="sans-serif" font-size="13" lengthAdjust="spacing" textLength="23.0356" x="629.4517" y="535.9105">0..*</text></g><!--SRC=[bPF1ReCm38RlF8N5YMsbwhGRcdePtMcJfcfx01Siv0gIoWaSEktTbqAWG3jfvGAsFpj_h1_BjYH86Gl12Y4dU2dHa84Ojg-h9zWeAwImOb9M6_WWCLfXoKVSbMI287EqWIzJex26xm3S4mFd2R2oFbAwsWabOAomAjha0sH2ADlQii9e2jmbqEKzIJdR0PNsrHCERJJd7cp8KoPoXJSszhcBry5FhxHB_5ze37gt9ykDdgNpMZ1ZhSRzbgaww9HCXiheS-K1t7gfGDdiIJ9sRH7rNmaCoUbjgEJAIRsf1_UrSRjAlRP8rTHWEbPwdVUAMtwgl-U71GudtxB3e_FCUssokaIPbOGERhqdVMJ6Smm9ZpEz3sPcMLoTlRWSknXFlBZL9nysUOl_SQrCAqkASpspSQLTYEBwJvxp9JUs_oF2nn3Y6CBLSdaVzkvBMlV3El3n53flE6cFTRyUZTWEEkCZwKv0NJ29mty1]--></g></svg>