<svg xmlns="http://www.w3.org/2000/svg" xmlns:xlink="http://www.w3.org/1999/xlink" contentStyleType="text/css" data-diagram-type="CLASS" height="589px" preserveAspectRatio="none" style="width:693px;height:589px;background:#1B1B1B;" version="1.1" viewBox="0 0 693 589" width="693px" zoomAndPan="magnify"><defs/><g><rect fill="#1B1B1B" height="589" style="stroke:none;stroke-width:1;" width="693" x="0" y="0"/><!--class Usuario--><g class="entity" data-entity="Usuario" data-source-line="1" data-uid="ent0002" id="entity_Usuario"><rect fill="#313139" height="194.6719" rx="2.5" ry="2.5" style="stroke:#E7E7E7;stroke-width:0.5;" width="441.9121" x="126.75" y="7"/><ellipse cx="316.854" cy="23" fill="#2E5233" rx="11" ry="11" style="stroke:#E7E7E7;stroke-width:1;"/><path d="M319.8228,28.6406 Q319.2446,28.9375 318.604,29.0781 Q317.9634,29.2344 317.2603,29.2344 Q314.7603,29.2344 313.4321,27.5938 Q312.1196,25.9375 312.1196,22.8125 Q312.1196,19.6875 313.4321,18.0313 Q314.7603,16.375 317.2603,16.375 Q317.9634,16.375 318.604,16.5313 Q319.2603,16.6875 319.8228,16.9844 L319.8228,19.7031 Q319.1978,19.125 318.604,18.8594 Q318.0103,18.5781 317.3853,18.5781 Q316.0415,18.5781 315.354,19.6563 Q314.6665,20.7188 314.6665,22.8125 Q314.6665,24.9063 315.354,25.9844 Q316.0415,27.0469 317.3853,27.0469 Q318.0103,27.0469 318.604,26.7813 Q319.1978,26.5 319.8228,25.9219 L319.8228,28.6406 Z " fill="#FFFFFF"/><text fill="#FFFFFF" font-family="sans-serif" font-size="14" lengthAdjust="spacing" textLength="53.2041" x="337.354" y="27.8467">Usuario</text><line style="stroke:#E7E7E7;stroke-width:0.5;" x1="127.75" x2="567.6621" y1="39" y2="39"/><rect fill="none" height="6" style="stroke:#C82930;stroke-width:1;" width="6" x="134.75" y="49.6484"/><text fill="#FFFFFF" font-family="sans-serif" font-size="14" lengthAdjust="spacing" textLength="40.1953" x="146.75" y="55.9951">id: int</text><rect fill="none" height="6" style="stroke:#C82930;stroke-width:1;" width="6" x="134.75" y="65.9453"/><text fill="#FFFFFF" font-family="sans-serif" font-size="14" lengthAdjust="spacing" textLength="103.6875" x="146.75" y="72.292">nombre: string</text><rect fill="none" height="6" style="stroke:#C82930;stroke-width:1;" width="6" x="134.75" y="82.2422"/><text fill="#FFFFFF" font-family="sans-serif" font-size="14" lengthAdjust="spacing" textLength="73.9785" x="146.75" y="88.5889">peso: float</text><rect fill="none" height="6" style="stroke:#C82930;stroke-width:1;" width="6" x="134.75" y="98.5391"/><text fill="#FFFFFF" font-family="sans-serif" font-size="14" lengthAdjust="spacing" textLength="81.7852" x="146.75" y="104.8857">altura: float</text><line style="stroke:#E7E7E7;stroke-width:0.5;" x1="127.75" x2="567.6621" y1="112.1875" y2="112.1875"/><ellipse cx="137.75" cy="125.8359" fill="#84BE84" rx="3" ry="3" style="stroke:#038048;stroke-width:1;"/><text fill="#FFFFFF" font-family="sans-serif" font-size="14" lengthAdjust="spacing" textLength="214.2588" x="146.75" y="129.1826">ingresarPeso(peso: float): void</text><ellipse cx="137.75" cy="142.1328" fill="#84BE84" rx="3" ry="3" style="stroke:#038048;stroke-width:1;"/><text fill="#FFFFFF" font-family="sans-serif" font-size="14" lengthAdjust="spacing" textLength="231.3145" x="146.75" y="145.4795">ingresarAltura(altura: float): void</text><ellipse cx="137.75" cy="158.4297" fill="#84BE84" rx="3" ry="3" style="stroke:#038048;stroke-width:1;"/><text fill="#FFFFFF" font-family="sans-serif" font-size="14" lengthAdjust="spacing" textLength="415.9121" x="146.75" y="161.7764">registrarAlimento(alimento: Alimento, cantidad: float): void</text><ellipse cx="137.75" cy="174.7266" fill="#84BE84" rx="3" ry="3" style="stroke:#038048;stroke-width:1;"/><text fill="#FFFFFF" font-family="sans-serif" font-size="14" lengthAdjust="spacing" textLength="392.6426" x="146.75" y="178.0732">registrarEjercicio(ejercicio: Ejercicio, duracion: int): void</text><ellipse cx="137.75" cy="191.0234" fill="#84BE84" rx="3" ry="3" style="stroke:#038048;stroke-width:1;"/><text fill="#FFFFFF" font-family="sans-serif" font-size="14" lengthAdjust="spacing" textLength="256.9287" x="146.75" y="194.3701">verResumenDiario(): ResumenDiario</text></g><!--class Alimento--><g class="entity" data-entity="Alimento" data-source-line="13" data-uid="ent0003" id="entity_Alimento"><rect fill="#313139" height="96.8906" rx="2.5" ry="2.5" style="stroke:#E7E7E7;stroke-width:0.5;" width="195.4219" x="7" y="485.16"/><ellipse cx="69.1934" cy="501.16" fill="#2E5233" rx="11" ry="11" style="stroke:#E7E7E7;stroke-width:1;"/><path d="M72.1621,506.8006 Q71.584,507.0975 70.9434,507.2381 Q70.3027,507.3944 69.5996,507.3944 Q67.0996,507.3944 65.7715,505.7537 Q64.459,504.0975 64.459,500.9725 Q64.459,497.8475 65.7715,496.1912 Q67.0996,494.535 69.5996,494.535 Q70.3027,494.535 70.9434,494.6912 Q71.5996,494.8475 72.1621,495.1444 L72.1621,497.8631 Q71.5371,497.285 70.9434,497.0194 Q70.3496,496.7381 69.7246,496.7381 Q68.3809,496.7381 67.6934,497.8162 Q67.0059,498.8787 67.0059,500.9725 Q67.0059,503.0662 67.6934,504.1444 Q68.3809,505.2069 69.7246,505.2069 Q70.3496,505.2069 70.9434,504.9412 Q71.5371,504.66 72.1621,504.0819 L72.1621,506.8006 Z " fill="#FFFFFF"/><text fill="#FFFFFF" font-family="sans-serif" font-size="14" lengthAdjust="spacing" textLength="62.5352" x="89.6934" y="506.0067">Alimento</text><line style="stroke:#E7E7E7;stroke-width:0.5;" x1="8" x2="201.4219" y1="517.16" y2="517.16"/><rect fill="none" height="6" style="stroke:#C82930;stroke-width:1;" width="6" x="15" y="527.8084"/><text fill="#FFFFFF" font-family="sans-serif" font-size="14" lengthAdjust="spacing" textLength="40.1953" x="27" y="534.1551">id: int</text><rect fill="none" height="6" style="stroke:#C82930;stroke-width:1;" width="6" x="15" y="544.1053"/><text fill="#FFFFFF" font-family="sans-serif" font-size="14" lengthAdjust="spacing" textLength="103.6875" x="27" y="550.452">nombre: string</text><rect fill="none" height="6" style="stroke:#C82930;stroke-width:1;" width="6" x="15" y="560.4022"/><text fill="#FFFFFF" font-family="sans-serif" font-size="14" lengthAdjust="spacing" textLength="169.4219" x="27" y="566.7489">caloriasPorPorcion: float</text><line style="stroke:#E7E7E7;stroke-width:0.5;" x1="8" x2="201.4219" y1="574.0506" y2="574.0506"/></g><!--class Ejercicio--><g class="entity" data-entity="Ejercicio" data-source-line="19" data-uid="ent0004" id="entity_Ejercicio"><rect fill="#313139" height="96.8906" rx="2.5" ry="2.5" style="stroke:#E7E7E7;stroke-width:0.5;" width="266.8848" x="237.27" y="485.16"/><ellipse cx="337.0405" cy="501.16" fill="#2E5233" rx="11" ry="11" style="stroke:#E7E7E7;stroke-width:1;"/><path d="M340.0093,506.8006 Q339.4311,507.0975 338.7905,507.2381 Q338.1499,507.3944 337.4468,507.3944 Q334.9468,507.3944 333.6186,505.7537 Q332.3061,504.0975 332.3061,500.9725 Q332.3061,497.8475 333.6186,496.1912 Q334.9468,494.535 337.4468,494.535 Q338.1499,494.535 338.7905,494.6912 Q339.4468,494.8475 340.0093,495.1444 L340.0093,497.8631 Q339.3843,497.285 338.7905,497.0194 Q338.1968,496.7381 337.5718,496.7381 Q336.228,496.7381 335.5405,497.8162 Q334.853,498.8787 334.853,500.9725 Q334.853,503.0662 335.5405,504.1444 Q336.228,505.2069 337.5718,505.2069 Q338.1968,505.2069 338.7905,504.9412 Q339.3843,504.66 340.0093,504.0819 L340.0093,506.8006 Z " fill="#FFFFFF"/><text fill="#FFFFFF" font-family="sans-serif" font-size="14" lengthAdjust="spacing" textLength="58.8438" x="357.5405" y="506.0067">Ejercicio</text><line style="stroke:#E7E7E7;stroke-width:0.5;" x1="238.27" x2="503.1548" y1="517.16" y2="517.16"/><rect fill="none" height="6" style="stroke:#C82930;stroke-width:1;" width="6" x="245.27" y="527.8084"/><text fill="#FFFFFF" font-family="sans-serif" font-size="14" lengthAdjust="spacing" textLength="40.1953" x="257.27" y="534.1551">id: int</text><rect fill="none" height="6" style="stroke:#C82930;stroke-width:1;" width="6" x="245.27" y="544.1053"/><text fill="#FFFFFF" font-family="sans-serif" font-size="14" lengthAdjust="spacing" textLength="103.6875" x="257.27" y="550.452">nombre: string</text><rect fill="none" height="6" style="stroke:#C82930;stroke-width:1;" width="6" x="245.27" y="560.4022"/><text fill="#FFFFFF" font-family="sans-serif" font-size="14" lengthAdjust="spacing" textLength="240.8848" x="257.27" y="566.7489">caloriasQuemadasPorMinuto: float</text><line style="stroke:#E7E7E7;stroke-width:0.5;" x1="238.27" x2="503.1548" y1="574.0506" y2="574.0506"/></g><!--class RegistroAlimento--><g class="entity" data-entity="RegistroAlimento" data-source-line="25" data-uid="ent0005" id="entity_RegistroAlimento"><rect fill="#313139" height="96.8906" rx="2.5" ry="2.5" style="stroke:#E7E7E7;stroke-width:0.5;" width="171.8516" x="30.79" y="294.97"/><ellipse cx="54.3826" cy="310.97" fill="#2E5233" rx="11" ry="11" style="stroke:#E7E7E7;stroke-width:1;"/><path d="M57.3514,316.6106 Q56.7733,316.9075 56.1326,317.0481 Q55.492,317.2044 54.7889,317.2044 Q52.2889,317.2044 50.9608,315.5637 Q49.6483,313.9075 49.6483,310.7825 Q49.6483,307.6575 50.9608,306.0012 Q52.2889,304.345 54.7889,304.345 Q55.492,304.345 56.1326,304.5012 Q56.7889,304.6575 57.3514,304.9544 L57.3514,307.6731 Q56.7264,307.095 56.1326,306.8294 Q55.5389,306.5481 54.9139,306.5481 Q53.5701,306.5481 52.8826,307.6262 Q52.1951,308.6887 52.1951,310.7825 Q52.1951,312.8762 52.8826,313.9544 Q53.5701,315.0169 54.9139,315.0169 Q55.5389,315.0169 56.1326,314.7512 Q56.7264,314.47 57.3514,313.8919 L57.3514,316.6106 Z " fill="#FFFFFF"/><text fill="#FFFFFF" font-family="sans-serif" font-size="14" lengthAdjust="spacing" textLength="120.7568" x="70.2921" y="315.8167">RegistroAlimento</text><line style="stroke:#E7E7E7;stroke-width:0.5;" x1="31.79" x2="201.6416" y1="326.97" y2="326.97"/><rect fill="none" height="6" style="stroke:#C82930;stroke-width:1;" width="6" x="38.79" y="337.6184"/><text fill="#FFFFFF" font-family="sans-serif" font-size="14" lengthAdjust="spacing" textLength="79.4268" x="50.79" y="343.9651">fecha: date</text><rect fill="none" height="6" style="stroke:#C82930;stroke-width:1;" width="6" x="38.79" y="353.9153"/><text fill="#FFFFFF" font-family="sans-serif" font-size="14" lengthAdjust="spacing" textLength="101.5" x="50.79" y="360.262">cantidad: float</text><rect fill="none" height="6" style="stroke:#C82930;stroke-width:1;" width="6" x="38.79" y="370.2122"/><text fill="#FFFFFF" font-family="sans-serif" font-size="14" lengthAdjust="spacing" textLength="145.8516" x="50.79" y="376.5589">caloriasTotales: float</text><line style="stroke:#E7E7E7;stroke-width:0.5;" x1="31.79" x2="201.6416" y1="383.8606" y2="383.8606"/></g><!--class RegistroEjercicio--><g class="entity" data-entity="RegistroEjercicio" data-source-line="31" data-uid="ent0006" id="entity_RegistroEjercicio"><rect fill="#313139" height="96.8906" rx="2.5" ry="2.5" style="stroke:#E7E7E7;stroke-width:0.5;" width="196.3516" x="249.54" y="294.97"/><ellipse cx="285.8188" cy="310.97" fill="#2E5233" rx="11" ry="11" style="stroke:#E7E7E7;stroke-width:1;"/><path d="M288.7875,316.6106 Q288.2094,316.9075 287.5688,317.0481 Q286.9281,317.2044 286.225,317.2044 Q283.725,317.2044 282.3969,315.5637 Q281.0844,313.9075 281.0844,310.7825 Q281.0844,307.6575 282.3969,306.0012 Q283.725,304.345 286.225,304.345 Q286.9281,304.345 287.5688,304.5012 Q288.225,304.6575 288.7875,304.9544 L288.7875,307.6731 Q288.1625,307.095 287.5688,306.8294 Q286.975,306.5481 286.35,306.5481 Q285.0063,306.5481 284.3188,307.6262 Q283.6313,308.6887 283.6313,310.7825 Q283.6313,312.8762 284.3188,313.9544 Q285.0063,315.0169 286.35,315.0169 Q286.975,315.0169 287.5688,314.7512 Q288.1625,314.47 288.7875,313.8919 L288.7875,316.6106 Z " fill="#FFFFFF"/><text fill="#FFFFFF" font-family="sans-serif" font-size="14" lengthAdjust="spacing" textLength="117.0654" x="304.5474" y="315.8167">RegistroEjercicio</text><line style="stroke:#E7E7E7;stroke-width:0.5;" x1="250.54" x2="444.8916" y1="326.97" y2="326.97"/><rect fill="none" height="6" style="stroke:#C82930;stroke-width:1;" width="6" x="257.54" y="337.6184"/><text fill="#FFFFFF" font-family="sans-serif" font-size="14" lengthAdjust="spacing" textLength="79.4268" x="269.54" y="343.9651">fecha: date</text><rect fill="none" height="6" style="stroke:#C82930;stroke-width:1;" width="6" x="257.54" y="353.9153"/><text fill="#FFFFFF" font-family="sans-serif" font-size="14" lengthAdjust="spacing" textLength="88.5391" x="269.54" y="360.262">duracion: int</text><rect fill="none" height="6" style="stroke:#C82930;stroke-width:1;" width="6" x="257.54" y="370.2122"/><text fill="#FFFFFF" font-family="sans-serif" font-size="14" lengthAdjust="spacing" textLength="170.3516" x="269.54" y="376.5589">caloriasQuemadas: float</text><line style="stroke:#E7E7E7;stroke-width:0.5;" x1="250.54" x2="444.8916" y1="383.8606" y2="383.8606"/></g><!--class ResumenDiario--><g class="entity" data-entity="ResumenDiario" data-source-line="37" data-uid="ent0007" id="entity_ResumenDiario"><rect fill="#313139" height="129.4844" rx="2.5" ry="2.5" style="stroke:#E7E7E7;stroke-width:0.5;" width="206.5371" x="480.44" y="278.68"/><ellipse cx="525.9127" cy="294.68" fill="#2E5233" rx="11" ry="11" style="stroke:#E7E7E7;stroke-width:1;"/><path d="M528.8814,300.3206 Q528.3033,300.6175 527.6627,300.7581 Q527.022,300.9144 526.3189,300.9144 Q523.8189,300.9144 522.4908,299.2737 Q521.1783,297.6175 521.1783,294.4925 Q521.1783,291.3675 522.4908,289.7112 Q523.8189,288.055 526.3189,288.055 Q527.022,288.055 527.6627,288.2112 Q528.3189,288.3675 528.8814,288.6644 L528.8814,291.3831 Q528.2564,290.805 527.6627,290.5394 Q527.0689,290.2581 526.4439,290.2581 Q525.1002,290.2581 524.4127,291.3362 Q523.7252,292.3987 523.7252,294.4925 Q523.7252,296.5862 524.4127,297.6644 Q525.1002,298.7269 526.4439,298.7269 Q527.0689,298.7269 527.6627,298.4612 Q528.2564,298.18 528.8814,297.6019 L528.8814,300.3206 Z " fill="#FFFFFF"/><text fill="#FFFFFF" font-family="sans-serif" font-size="14" lengthAdjust="spacing" textLength="107.0918" x="546.4127" y="299.5267">ResumenDiario</text><line style="stroke:#E7E7E7;stroke-width:0.5;" x1="481.44" x2="685.9771" y1="310.68" y2="310.68"/><rect fill="none" height="6" style="stroke:#C82930;stroke-width:1;" width="6" x="488.44" y="321.3284"/><text fill="#FFFFFF" font-family="sans-serif" font-size="14" lengthAdjust="spacing" textLength="79.4268" x="500.44" y="327.6751">fecha: date</text><rect fill="none" height="6" style="stroke:#C82930;stroke-width:1;" width="6" x="488.44" y="337.6253"/><text fill="#FFFFFF" font-family="sans-serif" font-size="14" lengthAdjust="spacing" textLength="180.5371" x="500.44" y="343.972">caloriasConsumidas: float</text><rect fill="none" height="6" style="stroke:#C82930;stroke-width:1;" width="6" x="488.44" y="353.9222"/><text fill="#FFFFFF" font-family="sans-serif" font-size="14" lengthAdjust="spacing" textLength="170.3516" x="500.44" y="360.2689">caloriasQuemadas: float</text><rect fill="none" height="6" style="stroke:#C82930;stroke-width:1;" width="6" x="488.44" y="370.2191"/><text fill="#FFFFFF" font-family="sans-serif" font-size="14" lengthAdjust="spacing" textLength="135.3174" x="500.44" y="376.5657">caloriasNetas: float</text><line style="stroke:#E7E7E7;stroke-width:0.5;" x1="481.44" x2="685.9771" y1="383.8675" y2="383.8675"/><ellipse cx="491.44" cy="397.5159" fill="#84BE84" rx="3" ry="3" style="stroke:#038048;stroke-width:1;"/><text fill="#FFFFFF" font-family="sans-serif" font-size="14" lengthAdjust="spacing" textLength="146.9521" x="500.44" y="400.8626">calcularNetas(): float</text></g><!--link Usuario to RegistroAlimento--><g class="link" data-entity-1="Usuario" data-entity-2="RegistroAlimento" data-source-line="45" data-uid="lnk8" id="link_Usuario_RegistroAlimento"><path codeLine="45" d="M253.42,202.11 C222.36,233.99 189.17,268.05 163.28,294.62" fill="none" id="Usuario-RegistroAlimento" style="stroke:#E7E7E7;stroke-width:1;"/><polygon fill="#FFFFFF" points="220.2206,243.8275,228.6379,239.4002,224.428,235.2982,220.2206,243.8275" style="stroke:#FFFFFF;stroke-width:1;"/><text fill="#FFFFFF" font-family="sans-serif" font-size="13" lengthAdjust="spacing" textLength="50.3877" x="232.71" y="244.7469">registra</text><text fill="#FFFFFF" font-family="sans-serif" font-size="13" lengthAdjust="spacing" textLength="8.271" x="238.5188" y="221.5836">1</text><text fill="#FFFFFF" font-family="sans-serif" font-size="13" lengthAdjust="spacing" textLength="23.0356" x="145.2134" y="283.7797">0..*</text></g><!--link Usuario to RegistroEjercicio--><g class="link" data-entity-1="Usuario" data-entity-2="RegistroEjercicio" data-source-line="46" data-uid="lnk9" id="link_Usuario_RegistroEjercicio"><path codeLine="46" d="M347.71,202.11 C347.71,233.99 347.71,268.05 347.71,294.62" fill="none" id="Usuario-RegistroEjercicio" style="stroke:#E7E7E7;stroke-width:1;"/><polygon fill="#FFFFFF" points="352.71,245.2464,355.6489,236.2013,349.7711,236.2013,352.71,245.2464" style="stroke:#FFFFFF;stroke-width:1;"/><text fill="#FFFFFF" font-family="sans-serif" font-size="13" lengthAdjust="spacing" textLength="43.3228" x="361.71" y="244.7469">realiza</text><text fill="#FFFFFF" font-family="sans-serif" font-size="13" lengthAdjust="spacing" textLength="8.271" x="339.4386" y="221.5836">1</text><text fill="#FFFFFF" font-family="sans-serif" font-size="13" lengthAdjust="spacing" textLength="23.0356" x="323.0945" y="283.7797">0..*</text></g><!--link Usuario to ResumenDiario--><g class="link" data-entity-1="Usuario" data-entity-2="ResumenDiario" data-source-line="47" data-uid="lnk10" id="link_Usuario_ResumenDiario"><path codeLine="47" d="M444.04,202.11 C469.66,227.85 496.69,255 520.07,278.49" fill="none" id="Usuario-ResumenDiario" style="stroke:#E7E7E7;stroke-width:1;"/><polygon fill="#FFFFFF" points="495.2374,243.79,490.9392,235.3062,486.7734,239.4529,495.2374,243.79" style="stroke:#FFFFFF;stroke-width:1;"/><text fill="#FFFFFF" font-family="sans-serif" font-size="13" lengthAdjust="spacing" textLength="32.9443" x="500.71" y="244.7469">tiene</text><text fill="#FFFFFF" font-family="sans-serif" font-size="13" lengthAdjust="spacing" textLength="8.271" x="442.5418" y="221.5836">1</text><text fill="#FFFFFF" font-family="sans-serif" font-size="13" lengthAdjust="spacing" textLength="23.0356" x="488.8537" y="267.6419">0..*</text></g><!--link RegistroAlimento to Alimento--><g class="link" data-entity-1="RegistroAlimento" data-entity-2="Alimento" data-source-line="48" data-uid="lnk11" id="link_RegistroAlimento_Alimento"><path codeLine="48" d="M113.68,391.9 C111.87,420.32 109.57,456.33 107.76,484.81" fill="none" id="RegistroAlimento-Alimento" style="stroke:#E7E7E7;stroke-width:1;"/><polygon fill="#FFFFFF" points="115.3921,451.7163,118.9002,442.8764,113.0342,442.5026,115.3921,451.7163" style="stroke:#FFFFFF;stroke-width:1;"/><text fill="#FFFFFF" font-family="sans-serif" font-size="13" lengthAdjust="spacing" textLength="42.8721" x="124.71" y="451.2269">refiere</text><text fill="#FFFFFF" font-family="sans-serif" font-size="13" lengthAdjust="spacing" textLength="23.0356" x="88.6384" y="411.8491">0..*</text><text fill="#FFFFFF" font-family="sans-serif" font-size="13" lengthAdjust="spacing" textLength="8.271" x="99.6453" y="473.9697">1</text></g><!--link RegistroEjercicio to Ejercicio--><g class="link" data-entity-1="RegistroEjercicio" data-entity-2="Ejercicio" data-source-line="49" data-uid="lnk12" id="link_RegistroEjercicio_Ejercicio"><path codeLine="49" d="M353.51,391.9 C356.99,420.32 361.39,456.33 364.87,484.81" fill="none" id="RegistroEjercicio-Ejercicio" style="stroke:#E7E7E7;stroke-width:1;"/><polygon fill="#FFFFFF" points="366.3168,451.6894,368.1363,442.3545,362.3019,443.0679,366.3168,451.6894" style="stroke:#FFFFFF;stroke-width:1;"/><text fill="#FFFFFF" font-family="sans-serif" font-size="13" lengthAdjust="spacing" textLength="42.8721" x="374.71" y="451.2269">refiere</text><text fill="#FFFFFF" font-family="sans-serif" font-size="13" lengthAdjust="spacing" textLength="23.0356" x="329.7101" y="411.8491">0..*</text><text fill="#FFFFFF" font-family="sans-serif" font-size="13" lengthAdjust="spacing" textLength="8.271" x="355.505" y="473.9697">1</text></g><!--SRC=[dLFBJiCm4BpdArOv1VeGN7r0Gi0HL2huWCNPbaMfZMod1n3_pkRPkA514ENWxCxCZiUnBj1xUFObEhRmcO0y2-1S0PlGVXcxUt6am0V7PjiMtybR1Pl2OWV38fGEXxMPY6mTUNGhGMS3ofc2lUNy27LTAsIHK8nqj6MnKK5vHoPO0JSB1Lrf3XfDu1ppQOcxDtAQDTkCkfM2lZY7N4p8mjHHn1fxSclofOoxvIguJDfH8VbA4br7sxdwIxOQ2-iO_SewUHiFJQgzRE_pFxgF9Uqmh_NlsPJ1ZkJNJKXsv7v3-bME9iT0lMWKzj6e9nkm87zom7WVumdHGPpOoWy31iSnQRyHkh5623oGcXuKTnyenArPrT9bWQvkLJz8Rx2xRUbb2ei5f1VBvNawZbprlofS_S8vf5YHv4fyJ766mIW8J8O4FPhVuYkc24IsDanko3dCZqcnhvRr3G00]--></g></svg>