<svg xmlns="http://www.w3.org/2000/svg" xmlns:xlink="http://www.w3.org/1999/xlink" contentStyleType="text/css" data-diagram-type="CLASS" height="556px" preserveAspectRatio="none" style="width:675px;height:556px;background:#1B1B1B;" version="1.1" viewBox="0 0 675 556" width="675px" zoomAndPan="magnify"><defs/><g><rect fill="#1B1B1B" height="556" style="stroke:none;stroke-width:1;" width="675" x="0" y="0"/><!--class Usuario--><g class="entity" data-entity="Usuario" data-source-line="1" data-uid="ent0002" id="entity_Usuario"><rect fill="#313139" height="145.7813" rx="2.5" ry="2.5" style="stroke:#E7E7E7;stroke-width:0.5;" width="574.8574" x="93.69" y="7"/><ellipse cx="350.2667" cy="23" fill="#2E5233" rx="11" ry="11" style="stroke:#E7E7E7;stroke-width:1;"/><path d="M353.2354,28.6406 Q352.6573,28.9375 352.0167,29.0781 Q351.376,29.2344 350.6729,29.2344 Q348.1729,29.2344 346.8448,27.5938 Q345.5323,25.9375 345.5323,22.8125 Q345.5323,19.6875 346.8448,18.0313 Q348.1729,16.375 350.6729,16.375 Q351.376,16.375 352.0167,16.5313 Q352.6729,16.6875 353.2354,16.9844 L353.2354,19.7031 Q352.6104,19.125 352.0167,18.8594 Q351.4229,18.5781 350.7979,18.5781 Q349.4542,18.5781 348.7667,19.6563 Q348.0792,20.7188 348.0792,22.8125 Q348.0792,24.9063 348.7667,25.9844 Q349.4542,27.0469 350.7979,27.0469 Q351.4229,27.0469 352.0167,26.7813 Q352.6104,26.5 353.2354,25.9219 L353.2354,28.6406 Z " fill="#FFFFFF"/><text fill="#FFFFFF" font-family="sans-serif" font-size="14" lengthAdjust="spacing" textLength="53.2041" x="370.7667" y="27.8467">Usuario</text><line style="stroke:#E7E7E7;stroke-width:0.5;" x1="94.69" x2="667.5474" y1="39" y2="39"/><rect fill="none" height="6" style="stroke:#C82930;stroke-width:1;" width="6" x="101.69" y="49.6484"/><text fill="#FFFFFF" font-family="sans-serif" font-size="14" lengthAdjust="spacing" textLength="40.1953" x="113.69" y="55.9951">id: int</text><rect fill="none" height="6" style="stroke:#C82930;stroke-width:1;" width="6" x="101.69" y="65.9453"/><text fill="#FFFFFF" font-family="sans-serif" font-size="14" lengthAdjust="spacing" textLength="103.6875" x="113.69" y="72.292">nombre: string</text><rect fill="none" height="6" style="stroke:#C82930;stroke-width:1;" width="6" x="101.69" y="82.2422"/><text fill="#FFFFFF" font-family="sans-serif" font-size="14" lengthAdjust="spacing" textLength="87.9648" x="113.69" y="88.5889">email: string</text><line style="stroke:#E7E7E7;stroke-width:0.5;" x1="94.69" x2="667.5474" y1="95.8906" y2="95.8906"/><ellipse cx="104.69" cy="109.5391" fill="#84BE84" rx="3" ry="3" style="stroke:#038048;stroke-width:1;"/><text fill="#FFFFFF" font-family="sans-serif" font-size="14" lengthAdjust="spacing" textLength="548.8574" x="113.69" y="112.8857">crearRecordatorio(titulo: string, descripcion: string, fecha: date): Recordatorio</text><ellipse cx="104.69" cy="125.8359" fill="#84BE84" rx="3" ry="3" style="stroke:#038048;stroke-width:1;"/><text fill="#FFFFFF" font-family="sans-serif" font-size="14" lengthAdjust="spacing" textLength="278.1543" x="113.69" y="129.1826">verRecordatorios(): List&lt;Recordatorio&gt;</text><ellipse cx="104.69" cy="142.1328" fill="#84BE84" rx="3" ry="3" style="stroke:#038048;stroke-width:1;"/><text fill="#FFFFFF" font-family="sans-serif" font-size="14" lengthAdjust="spacing" textLength="392.0479" x="113.69" y="145.4795">marcarComoCumplido(recordatorio: Recordatorio): void</text></g><!--class Recordatorio--><g class="entity" data-entity="Recordatorio" data-source-line="10" data-uid="ent0003" id="entity_Recordatorio"><rect fill="#313139" height="162.0781" rx="2.5" ry="2.5" style="stroke:#E7E7E7;stroke-width:0.5;" width="298.2344" x="7" y="229.78"/><ellipse cx="106.8218" cy="245.78" fill="#2E5233" rx="11" ry="11" style="stroke:#E7E7E7;stroke-width:1;"/><path d="M109.7905,251.4206 Q109.2124,251.7175 108.5718,251.8581 Q107.9312,252.0144 107.228,252.0144 Q104.728,252.0144 103.3999,250.3738 Q102.0874,248.7175 102.0874,245.5925 Q102.0874,242.4675 103.3999,240.8113 Q104.728,239.155 107.228,239.155 Q107.9312,239.155 108.5718,239.3113 Q109.228,239.4675 109.7905,239.7644 L109.7905,242.4831 Q109.1655,241.905 108.5718,241.6394 Q107.978,241.3581 107.353,241.3581 Q106.0093,241.3581 105.3218,242.4363 Q104.6343,243.4988 104.6343,245.5925 Q104.6343,247.6863 105.3218,248.7644 Q106.0093,249.8269 107.353,249.8269 Q107.978,249.8269 108.5718,249.5613 Q109.1655,249.28 109.7905,248.7019 L109.7905,251.4206 Z " fill="#FFFFFF"/><text fill="#FFFFFF" font-family="sans-serif" font-size="14" lengthAdjust="spacing" textLength="90.0908" x="127.3218" y="250.6267">Recordatorio</text><line style="stroke:#E7E7E7;stroke-width:0.5;" x1="8" x2="304.2344" y1="261.78" y2="261.78"/><rect fill="none" height="6" style="stroke:#C82930;stroke-width:1;" width="6" x="15" y="272.4284"/><text fill="#FFFFFF" font-family="sans-serif" font-size="14" lengthAdjust="spacing" textLength="40.1953" x="27" y="278.7751">id: int</text><rect fill="none" height="6" style="stroke:#C82930;stroke-width:1;" width="6" x="15" y="288.7253"/><text fill="#FFFFFF" font-family="sans-serif" font-size="14" lengthAdjust="spacing" textLength="85.5518" x="27" y="295.072">titulo: string</text><rect fill="none" height="6" style="stroke:#C82930;stroke-width:1;" width="6" x="15" y="305.0222"/><text fill="#FFFFFF" font-family="sans-serif" font-size="14" lengthAdjust="spacing" textLength="129.4043" x="27" y="311.3689">descripcion: string</text><rect fill="none" height="6" style="stroke:#C82930;stroke-width:1;" width="6" x="15" y="321.3191"/><text fill="#FFFFFF" font-family="sans-serif" font-size="14" lengthAdjust="spacing" textLength="79.4268" x="27" y="327.6657">fecha: date</text><rect fill="none" height="6" style="stroke:#C82930;stroke-width:1;" width="6" x="15" y="337.6159"/><text fill="#FFFFFF" font-family="sans-serif" font-size="14" lengthAdjust="spacing" textLength="103.4004" x="27" y="343.9626">cumplido: bool</text><line style="stroke:#E7E7E7;stroke-width:0.5;" x1="8" x2="304.2344" y1="351.2644" y2="351.2644"/><ellipse cx="18" cy="364.9128" fill="#84BE84" rx="3" ry="3" style="stroke:#038048;stroke-width:1;"/><text fill="#FFFFFF" font-family="sans-serif" font-size="14" lengthAdjust="spacing" textLength="166.127" x="27" y="368.2595">marcarCumplido(): void</text><ellipse cx="18" cy="381.2097" fill="#84BE84" rx="3" ry="3" style="stroke:#038048;stroke-width:1;"/><text fill="#FFFFFF" font-family="sans-serif" font-size="14" lengthAdjust="spacing" textLength="272.2344" x="27" y="384.5564">categorizar(categoria: Categoria): void</text></g><!--class Categoria--><g class="entity" data-entity="Categoria" data-source-line="20" data-uid="ent0004" id="entity_Categoria"><rect fill="#313139" height="80.5938" rx="2.5" ry="2.5" style="stroke:#E7E7E7;stroke-width:0.5;" width="129.6875" x="91.27" y="468.86"/><ellipse cx="119.5692" cy="484.86" fill="#2E5233" rx="11" ry="11" style="stroke:#E7E7E7;stroke-width:1;"/><path d="M122.5379,490.5006 Q121.9598,490.7975 121.3192,490.9381 Q120.6785,491.0944 119.9754,491.0944 Q117.4754,491.0944 116.1473,489.4538 Q114.8348,487.7975 114.8348,484.6725 Q114.8348,481.5475 116.1473,479.8913 Q117.4754,478.235 119.9754,478.235 Q120.6785,478.235 121.3192,478.3913 Q121.9754,478.5475 122.5379,478.8444 L122.5379,481.5631 Q121.9129,480.985 121.3192,480.7194 Q120.7254,480.4381 120.1004,480.4381 Q118.7567,480.4381 118.0692,481.5163 Q117.3817,482.5788 117.3817,484.6725 Q117.3817,486.7663 118.0692,487.8444 Q118.7567,488.9069 120.1004,488.9069 Q120.7254,488.9069 121.3192,488.6413 Q121.9129,488.36 122.5379,487.7819 L122.5379,490.5006 Z " fill="#FFFFFF"/><text fill="#FFFFFF" font-family="sans-serif" font-size="14" lengthAdjust="spacing" textLength="68.1338" x="136.5245" y="489.7067">Categoria</text><line style="stroke:#E7E7E7;stroke-width:0.5;" x1="92.27" x2="219.9575" y1="500.86" y2="500.86"/><rect fill="none" height="6" style="stroke:#C82930;stroke-width:1;" width="6" x="99.27" y="511.5084"/><text fill="#FFFFFF" font-family="sans-serif" font-size="14" lengthAdjust="spacing" textLength="40.1953" x="111.27" y="517.8551">id: int</text><rect fill="none" height="6" style="stroke:#C82930;stroke-width:1;" width="6" x="99.27" y="527.8053"/><text fill="#FFFFFF" font-family="sans-serif" font-size="14" lengthAdjust="spacing" textLength="103.6875" x="111.27" y="534.152">nombre: string</text><line style="stroke:#E7E7E7;stroke-width:0.5;" x1="92.27" x2="219.9575" y1="541.4538" y2="541.4538"/></g><!--class Notificacion--><g class="entity" data-entity="Notificacion" data-source-line="25" data-uid="ent0005" id="entity_Notificacion"><rect fill="#313139" height="113.1875" rx="2.5" ry="2.5" style="stroke:#E7E7E7;stroke-width:0.5;" width="233.915" x="340.16" y="254.22"/><ellipse cx="411.599" cy="270.22" fill="#2E5233" rx="11" ry="11" style="stroke:#E7E7E7;stroke-width:1;"/><path d="M414.5677,275.8606 Q413.9896,276.1575 413.349,276.2981 Q412.7083,276.4544 412.0052,276.4544 Q409.5052,276.4544 408.1771,274.8138 Q406.8646,273.1575 406.8646,270.0325 Q406.8646,266.9075 408.1771,265.2513 Q409.5052,263.595 412.0052,263.595 Q412.7083,263.595 413.349,263.7513 Q414.0052,263.9075 414.5677,264.2044 L414.5677,266.9231 Q413.9427,266.345 413.349,266.0794 Q412.7552,265.7981 412.1302,265.7981 Q410.7865,265.7981 410.099,266.8763 Q409.4115,267.9388 409.4115,270.0325 Q409.4115,272.1263 410.099,273.2044 Q410.7865,274.2669 412.1302,274.2669 Q412.7552,274.2669 413.349,274.0013 Q413.9427,273.72 414.5677,273.1419 L414.5677,275.8606 Z " fill="#FFFFFF"/><text fill="#FFFFFF" font-family="sans-serif" font-size="14" lengthAdjust="spacing" textLength="82.5371" x="432.099" y="275.0667">Notificacion</text><line style="stroke:#E7E7E7;stroke-width:0.5;" x1="341.16" x2="573.075" y1="286.22" y2="286.22"/><rect fill="none" height="6" style="stroke:#C82930;stroke-width:1;" width="6" x="348.16" y="296.8684"/><text fill="#FFFFFF" font-family="sans-serif" font-size="14" lengthAdjust="spacing" textLength="40.1953" x="360.16" y="303.2151">id: int</text><rect fill="none" height="6" style="stroke:#C82930;stroke-width:1;" width="6" x="348.16" y="313.1653"/><text fill="#FFFFFF" font-family="sans-serif" font-size="14" lengthAdjust="spacing" textLength="108.8555" x="360.16" y="319.512">mensaje: string</text><rect fill="none" height="6" style="stroke:#C82930;stroke-width:1;" width="6" x="348.16" y="329.4622"/><text fill="#FFFFFF" font-family="sans-serif" font-size="14" lengthAdjust="spacing" textLength="117.8857" x="360.16" y="335.8089">fechaEnvio: date</text><line style="stroke:#E7E7E7;stroke-width:0.5;" x1="341.16" x2="573.075" y1="343.1106" y2="343.1106"/><ellipse cx="351.16" cy="356.7591" fill="#84BE84" rx="3" ry="3" style="stroke:#038048;stroke-width:1;"/><text fill="#FFFFFF" font-family="sans-serif" font-size="14" lengthAdjust="spacing" textLength="207.915" x="360.16" y="360.1057">enviar(usuario: Usuario): void</text></g><!--link Usuario to Recordatorio--><g class="link" data-entity-1="Usuario" data-entity-2="Recordatorio" data-source-line="32" data-uid="lnk6" id="link_Usuario_Recordatorio"><path codeLine="32" d="M310.23,153.01 C286.4,177.25 259.67,204.45 235.25,229.3" fill="none" id="Usuario-Recordatorio" style="stroke:#E7E7E7;stroke-width:1;"/><polygon fill="#FFFFFF" points="277.6152,194.9124,286.0515,190.5215,281.8594,186.4014,277.6152,194.9124" style="stroke:#FFFFFF;stroke-width:1;"/><text fill="#FFFFFF" font-family="sans-serif" font-size="13" lengthAdjust="spacing" textLength="28.4565" x="290.12" y="195.8469">crea</text><text fill="#FFFFFF" font-family="sans-serif" font-size="13" lengthAdjust="spacing" textLength="8.271" x="295.1051" y="172.7673">1</text><text fill="#FFFFFF" font-family="sans-serif" font-size="13" lengthAdjust="spacing" textLength="23.0356" x="218.0637" y="218.7225">0..*</text></g><!--link Recordatorio to Categoria--><g class="link" data-entity-1="Recordatorio" data-entity-2="Categoria" data-source-line="33" data-uid="lnk7" id="link_Recordatorio_Categoria"><path codeLine="33" d="M156.12,392.24 C156.12,418.5 156.12,446.52 156.12,468.43" fill="none" id="Recordatorio-Categoria" style="stroke:#E7E7E7;stroke-width:1;"/><polygon fill="#FFFFFF" points="161.12,435.4264,164.0589,426.3813,158.1811,426.3813,161.12,435.4264" style="stroke:#FFFFFF;stroke-width:1;"/><text fill="#FFFFFF" font-family="sans-serif" font-size="13" lengthAdjust="spacing" textLength="78.1714" x="170.12" y="434.9269">pertenece a</text><text fill="#FFFFFF" font-family="sans-serif" font-size="13" lengthAdjust="spacing" textLength="23.0356" x="132.1335" y="411.9542">0..*</text><text fill="#FFFFFF" font-family="sans-serif" font-size="13" lengthAdjust="spacing" textLength="8.271" x="147.5051" y="457.8213">1</text></g><!--link Usuario to Notificacion--><g class="link" data-entity-1="Usuario" data-entity-2="Notificacion" data-source-line="34" data-uid="lnk8" id="link_Usuario_Notificacion"><path codeLine="34" d="M405.06,153.01 C415.89,185.64 428.5,223.62 438.6,254.03" fill="none" id="Usuario-Notificacion" style="stroke:#E7E7E7;stroke-width:1;"/><polygon fill="#FFFFFF" points="425.6955,196.0917,425.6346,186.5813,420.0562,188.4334,425.6955,196.0917" style="stroke:#FFFFFF;stroke-width:1;"/><text fill="#FFFFFF" font-family="sans-serif" font-size="13" lengthAdjust="spacing" textLength="40.3521" x="433.12" y="195.8469">recibe</text><text fill="#FFFFFF" font-family="sans-serif" font-size="13" lengthAdjust="spacing" textLength="8.271" x="398.9736" y="172.7673">1</text><text fill="#FFFFFF" font-family="sans-serif" font-size="13" lengthAdjust="spacing" textLength="23.0356" x="411.9438" y="243.2704">0..*</text></g><!--SRC=[ZLB1JeGm4Btp5HDEwCf6hutP2_5cF9Zu0QNChcDeXxI5WyP_jwmjIoERoAcycVVwtdHKBvs3DpTAImnV1OIl1ke4aF7npx1kBGfmtf8vHH2rf3x3Tg0iIlkAYcqdFGV1ofCVUqvjTz2XKvO6HMmku17LknGGE7WZOCsFkXDcgguARS_a_ECQFSHcBQsIjc7DpQY7dZgkxAejlo08JKnTyLqKwZo9TV7AEF9C4Tm85YkhT15HqPU0bhdFRIVBoLWSR22VWgLFQQjq3ffDElw9iLJ-zwGBxuKz7Kd9ESSLgaRZv0TkfNmoqppW9UeEC231y_YxNo8jsiflMhtoeOIwXl9-lxyjysSGvyM2Gv6XiNFc1Eebi801hKU32c4cRL-G1HKGDeHQXCCF]--></g></svg>